<svg width="249" height="25" viewBox="0 0 249 25" fill="none" xmlns="http://www.w3.org/2000/svg">
<path d="M8.75958 0H0V25H8.75958V0Z" fill="white"/>
<path d="M11.3127 8.74359L21.5257 0H31.7387L17.6893 11.2436L29.1854 25H20.2425L11.3127 15V8.74359Z" fill="white"/>
<path d="M64.4595 4.60256L60.8064 1.02564C60.1386 0.371795 59.2221 0 58.2793 0H39.5294C38.5866 0 37.6701 0.371795 37.0023 1.02564L32.7076 5.23077C32.0399 5.88462 31.6602 6.78205 31.6602 7.70513V25H40.6031V18.7436H57.1926V25H65.4939V7.07692C65.507 6.15385 65.1142 5.25641 64.4595 4.60256ZM57.2057 15H40.6031V9.39744C40.6031 7.65385 42.0433 6.24359 43.8241 6.24359H53.9847C55.7654 6.24359 57.2057 7.65385 57.2057 9.39744V15Z" fill="white"/>
<path d="M67.7067 0H75.1569C75.314 0 75.445 0.115385 75.445 0.269231V7.5641C75.445 8.91026 76.6103 10 78.0506 10H90.2145C91.6548 10 92.8201 8.91026 92.8201 7.5641V0.269231C92.8201 0.115385 92.951 0 93.1082 0H100.558C100.689 0 100.82 0.115385 100.82 0.269231V7.17949C100.82 12.1923 96.4732 16.2564 91.1179 16.2564H77.1078C71.7526 16.2564 67.4055 12.1923 67.4055 7.17949V0.269231C67.4186 0.115385 67.5495 0 67.7067 0Z" fill="white"/>
<path d="M91.4716 18.7436H76.7676V25H91.4716V18.7436Z" fill="white"/>
<path d="M125.384 0H111.583C106.228 0 101.894 4.24359 101.894 9.48718V15.5C101.894 20.7436 106.228 24.9872 111.583 24.9872H125.384C130.739 24.9872 135.073 20.7436 135.073 15.5V9.48718C135.073 4.24359 130.739 0 125.384 0ZM127.61 14.9744C127.61 16.7179 125.842 18.1282 123.682 18.1282H113.285C111.112 18.1282 109.357 16.7179 109.357 14.9744V10.0256C109.357 8.28205 111.125 6.87179 113.285 6.87179H123.682C125.855 6.87179 127.61 8.28205 127.61 10.0256V14.9744Z" fill="white"/>
<path d="M170.216 24.0385C169.823 24.2436 169.378 24.359 168.907 24.359H168.213C168.619 24.359 169.012 24.3205 169.404 24.2308C169.548 24.2179 169.679 24.1923 169.823 24.1538C169.836 24.1538 169.836 24.1538 169.85 24.141H169.863C169.981 24.1154 170.098 24.0769 170.216 24.0385Z" fill="white"/>
<path d="M171.905 10.7051C171.696 10.5513 171.499 10.4359 171.277 10.3077C171.316 10.3205 171.342 10.3333 171.381 10.359C171.525 10.4102 171.643 10.5 171.774 10.6026C171.827 10.641 171.866 10.6795 171.905 10.7051Z" fill="white"/>
<path d="M172.337 11.0513C172.193 10.9231 172.062 10.8077 171.905 10.7051C171.971 10.7564 172.062 10.8333 172.141 10.8846C172.193 10.9359 172.259 10.9872 172.337 11.0513Z" fill="white"/>
<path d="M170.229 24.0256C170.229 24.0256 170.229 24.0385 170.216 24.0385C170.085 24.0769 169.98 24.1154 169.863 24.141C169.98 24.0897 170.124 24.0513 170.229 24.0256Z" fill="white"/>
<path d="M170.596 23.8718C170.517 23.9103 170.412 23.9487 170.334 23.9744C170.321 23.9744 170.295 23.9872 170.281 23.9872C170.386 23.9487 170.478 23.9103 170.596 23.8718Z" fill="white"/>
<path d="M170.596 9.96154C170.399 9.88462 170.203 9.80769 170.02 9.74359C170.085 9.75641 170.164 9.76923 170.229 9.79487C170.242 9.79487 170.242 9.80769 170.242 9.80769C170.36 9.84616 170.478 9.91026 170.596 9.96154Z" fill="white"/>
<path d="M173.359 12.1667L173.346 12.1795C173.136 11.8846 172.913 11.6154 172.652 11.359C172.599 11.2949 172.521 11.2308 172.468 11.1795C172.429 11.1282 172.377 11.0897 172.324 11.0513C172.18 10.9231 172.049 10.8077 171.892 10.7051C171.683 10.5513 171.486 10.4359 171.264 10.3077C171.303 10.3205 171.329 10.3333 171.368 10.359C171.512 10.4102 171.63 10.5 171.761 10.6026C171.879 10.6667 172.01 10.7564 172.115 10.8718C172.612 11.2308 173.031 11.6667 173.359 12.1667Z" fill="white"/>
<path d="M170.229 24.0256C170.229 24.0256 170.229 24.0385 170.216 24.0385C169.823 24.2436 169.378 24.359 168.907 24.359H168.213C168.619 24.359 169.012 24.3205 169.404 24.2308C169.548 24.2179 169.679 24.1923 169.823 24.1538C169.836 24.1538 169.836 24.1538 169.85 24.141H169.863C169.981 24.0897 170.125 24.0513 170.229 24.0256Z" fill="white"/>
<path d="M223.219 24.0385C222.8 24.2564 222.342 24.359 221.909 24.359C220.993 24.359 220.129 23.9231 219.644 23.1667L209.143 6.62821L198.629 23.1667C198.092 24.0256 197.058 24.4487 196.05 24.3333C196.05 24.3333 196.05 24.3333 196.037 24.3333C195.919 24.359 195.814 24.359 195.709 24.359C194.793 24.359 193.929 23.9231 193.444 23.1667L182.943 6.62821L172.429 23.1667C171.971 23.8846 171.159 24.3205 170.295 24.359H168.907C169.378 24.359 169.836 24.2308 170.216 24.0385C170.229 24.0385 170.229 24.0256 170.229 24.0256C170.124 24.0513 169.98 24.0897 169.85 24.141H169.836C169.823 24.1538 169.823 24.1538 169.81 24.1538C169.666 24.1923 169.535 24.2179 169.391 24.2308C168.998 24.3077 168.606 24.359 168.2 24.359H144.291C142.602 24.359 141.096 23 141.279 21.3718C141.293 21.2949 141.293 21.2051 141.319 21.141C141.41 20.6026 141.698 20.1154 142.078 19.7436C142.576 19.2436 143.27 18.9487 144.029 18.9487H168.147C168.566 18.9487 168.907 18.6154 168.907 18.2051V15.6282C168.907 15.2179 168.566 14.8846 168.147 14.8846H146.176C144.225 14.8846 142.484 14 141.319 12.641V12.6282C140.415 11.5769 139.878 10.2051 139.878 8.73077V6.15385C139.878 2.76923 142.707 0 146.163 0H170.02C171.709 0 173.215 1.35897 173.031 2.98718C172.966 3.62821 172.678 4.19231 172.233 4.61538C171.735 5.11538 171.041 5.41026 170.282 5.41026H146.163C145.744 5.41026 145.404 5.74359 145.404 6.15385V8.73077C145.404 9.14103 145.744 9.47436 146.163 9.47436H168.134C168.383 9.47436 168.632 9.48718 168.868 9.51282C169.051 9.53846 169.221 9.5641 169.391 9.58974C169.601 9.62821 169.81 9.67949 169.994 9.74359C170.19 9.80769 170.386 9.88462 170.57 9.96154C170.74 10.0256 170.884 10.1026 171.041 10.1923C171.093 10.2051 171.133 10.2308 171.198 10.2692C171.224 10.2821 171.237 10.2949 171.251 10.2949C171.251 10.2949 171.264 10.2949 171.264 10.3077C171.486 10.4231 171.683 10.5513 171.892 10.7051C172.049 10.8077 172.18 10.9359 172.324 11.0513C172.364 11.0769 172.416 11.1154 172.468 11.1795C172.521 11.2308 172.586 11.2821 172.652 11.359C172.913 11.6154 173.136 11.8846 173.346 12.1795L173.359 12.1667L180.324 1.19231C180.874 0.333333 181.909 -0.0897436 182.917 0.025641C182.93 0.025641 182.93 0.025641 182.93 0.025641C183.048 0 183.139 0 183.257 0C184.174 0 185.038 0.435897 185.523 1.19231L196.037 17.7308L206.538 1.19231C207.075 0.333333 208.109 -0.0897436 209.117 0.025641C209.13 0.025641 209.13 0.025641 209.13 0.025641C209.248 0 209.353 0 209.458 0C210.374 0 211.238 0.435897 211.736 1.19231L224.188 20.7821C224.908 21.9231 224.476 23.3846 223.219 24.0385Z" fill="white"/>
<path d="M249 2.70513C249 3.44872 248.686 4.12821 248.175 4.61538C247.677 5.11538 246.997 5.41026 246.237 5.41026H236.561V21.6538C236.561 23.141 235.317 24.359 233.798 24.359C233.039 24.359 232.345 24.0641 231.847 23.5641C231.337 23.0769 231.023 22.3974 231.023 21.6538V5.41026H218.741L214.734 0H246.237C247.756 0 249 1.21795 249 2.70513Z" fill="white"/>
</svg>
